<?xml version="1.0" encoding="UTF-8" standalone="no"?>
<!-- Created with Inkscape (http://www.inkscape.org/) -->

<svg
   xmlns:dc="http://purl.org/dc/elements/1.1/"
   xmlns:cc="http://creativecommons.org/ns#"
   xmlns:rdf="http://www.w3.org/1999/02/22-rdf-syntax-ns#"
   xmlns:svg="http://www.w3.org/2000/svg"
   xmlns="http://www.w3.org/2000/svg"
   xmlns:sodipodi="http://sodipodi.sourceforge.net/DTD/sodipodi-0.dtd"
   xmlns:inkscape="http://www.inkscape.org/namespaces/inkscape"
   width="64"
   height="32"
   id="svg2"
   version="1.1"
   inkscape:version="0.48.4 r9939"
   sodipodi:docname="4x4_car.svg">
  <defs
     id="defs4" />
  <sodipodi:namedview
     id="base"
     pagecolor="#ffffff"
     bordercolor="#666666"
     borderopacity="1.0"
     inkscape:pageopacity="0.0"
     inkscape:pageshadow="2"
     inkscape:zoom="19.290757"
     inkscape:cx="27.056495"
     inkscape:cy="14.533792"
     inkscape:document-units="px"
     inkscape:current-layer="layer1"
     showgrid="true"
     inkscape:window-width="1916"
     inkscape:window-height="1041"
     inkscape:window-x="0"
     inkscape:window-y="18"
     inkscape:window-maximized="0">
    <inkscape:grid
       type="xygrid"
       id="grid2991" />
  </sodipodi:namedview>
  <metadata
     id="metadata7">
    <rdf:RDF>
      <cc:Work
         rdf:about="">
        <dc:format>image/svg+xml</dc:format>
        <dc:type
           rdf:resource="http://purl.org/dc/dcmitype/StillImage" />
        <dc:title />
      </cc:Work>
    </rdf:RDF>
  </metadata>
  <g
     inkscape:label="Layer 1"
     inkscape:groupmode="layer"
     id="layer1"
     transform="translate(0,-1020.3622)">
    <path
       sodipodi:type="arc"
       style="fill:none;stroke:#000000;stroke-width:1.6666941;stroke-miterlimit:4;stroke-dasharray:none"
       id="path2995"
       sodipodi:cx="42.5"
       sodipodi:cy="24.5"
       sodipodi:rx="2.5"
       sodipodi:ry="2.5"
       d="M 45,24.5 C 45,25.880712 43.880712,27 42.5,27 41.119288,27 40,25.880712 40,24.5 40,23.119288 41.119288,22 42.5,22 c 1.380712,0 2.5,1.119288 2.5,2.5 z"
       transform="matrix(1.2244898,0,0,1.2244898,-3.5102041,1015.6887)" />
    <path
       sodipodi:type="arc"
       style="fill:none;stroke:#000000;stroke-width:1.6666941;stroke-miterlimit:4;stroke-dasharray:none"
       id="path2997"
       sodipodi:cx="27.5"
       sodipodi:cy="24.5"
       sodipodi:rx="2.5"
       sodipodi:ry="2.5"
       d="M 30,24.5 C 30,25.880712 28.880712,27 27.5,27 26.119288,27 25,25.880712 25,24.5 25,23.119288 26.119288,22 27.5,22 c 1.380712,0 2.5,1.119288 2.5,2.5 z"
       transform="matrix(1.2244898,0,0,1.2244898,-18.204082,1015.6887)" />
    <path
       style="fill:none;stroke:#000000;stroke-width:3.05999994;stroke-linecap:butt;stroke-linejoin:miter;stroke-opacity:1;stroke-miterlimit:4;stroke-dasharray:none"
       d="m 12.408163,1045.0765 -9.7959181,0 0,-9.7959 18.3673471,-1.2245 4.897959,-8.5715 31.836735,0 3.673469,13.4694 0,6.1225 -9.795918,0"
       id="path2999"
       inkscape:connector-curvature="0" />
    <path
       style="fill:none;stroke:#000000;stroke-width:3.05999994;stroke-linecap:butt;stroke-linejoin:miter;stroke-opacity:1;stroke-miterlimit:4;stroke-dasharray:none"
       d="m 18.530612,1045.0765 26.938776,0"
       id="path3001"
       inkscape:connector-curvature="0" />
  </g>
</svg>
