<?xml version="1.0" encoding="UTF-8" standalone="no"?>
<!-- Created with Inkscape (http://www.inkscape.org/) -->

<svg
   xmlns:dc="http://purl.org/dc/elements/1.1/"
   xmlns:cc="http://creativecommons.org/ns#"
   xmlns:rdf="http://www.w3.org/1999/02/22-rdf-syntax-ns#"
   xmlns:svg="http://www.w3.org/2000/svg"
   xmlns="http://www.w3.org/2000/svg"
   xmlns:sodipodi="http://sodipodi.sourceforge.net/DTD/sodipodi-0.dtd"
   xmlns:inkscape="http://www.inkscape.org/namespaces/inkscape"
   width="64"
   height="32"
   id="svg2"
   version="1.1"
   inkscape:version="0.48.4 r9939"
   sodipodi:docname="q_x_100.svg">
  <defs
     id="defs4" />
  <sodipodi:namedview
     id="base"
     pagecolor="#ffffff"
     bordercolor="#666666"
     borderopacity="1.0"
     inkscape:pageopacity="0.0"
     inkscape:pageshadow="2"
     inkscape:zoom="19.290757"
     inkscape:cx="22.909431"
     inkscape:cy="14.533792"
     inkscape:document-units="px"
     inkscape:current-layer="layer1"
     showgrid="false"
     inkscape:window-width="1916"
     inkscape:window-height="1041"
     inkscape:window-x="0"
     inkscape:window-y="18"
     inkscape:window-maximized="0" />
  <metadata
     id="metadata7">
    <rdf:RDF>
      <cc:Work
         rdf:about="">
        <dc:format>image/svg+xml</dc:format>
        <dc:type
           rdf:resource="http://purl.org/dc/dcmitype/StillImage" />
        <dc:title />
      </cc:Work>
    </rdf:RDF>
  </metadata>
  <g
     inkscape:label="Layer 1"
     inkscape:groupmode="layer"
     id="layer1"
     transform="translate(0,-1020.3622)">
    <path
       sodipodi:type="arc"
       style="fill:none;stroke:#000000;stroke-width:1.43099513;stroke-miterlimit:4;stroke-dasharray:none"
       id="path2985"
       sodipodi:cx="18.382589"
       sodipodi:cy="9.4203892"
       sodipodi:rx="3.8304696"
       sodipodi:ry="4.0320735"
       d="m 22.213059,9.4203892 c 0,2.2268528 -1.71496,4.0320738 -3.83047,4.0320738 -2.11551,0 -3.830469,-1.805221 -3.830469,-4.0320738 0,-2.2268527 1.714959,-4.0320735 3.830469,-4.0320735 2.11551,0 3.83047,1.8052208 3.83047,4.0320735 z"
       transform="matrix(1.2356785,0,0,1.1738945,-16.71497,1035.3037)" />
    <path
       sodipodi:type="arc"
       style="fill:none;stroke:#000000;stroke-width:1.43099539;stroke-miterlimit:4;stroke-dasharray:none"
       id="path2985-3"
       sodipodi:cx="18.382589"
       sodipodi:cy="9.4203892"
       sodipodi:rx="3.8304696"
       sodipodi:ry="4.0320735"
       d="m 22.213059,9.4203892 c 0,2.2268528 -1.71496,4.0320738 -3.83047,4.0320738 -2.11551,0 -3.830469,-1.805221 -3.830469,-4.0320738 0,-2.2268527 1.714959,-4.0320735 3.830469,-4.0320735 2.11551,0 3.83047,1.8052208 3.83047,4.0320735 z"
       transform="matrix(1.2356785,0,0,1.1738944,3.2850297,1015.3037)" />
    <path
       sodipodi:type="arc"
       style="fill:none;stroke:#000000;stroke-width:1.43099539;stroke-miterlimit:4;stroke-dasharray:none"
       id="path2985-6"
       sodipodi:cx="18.382589"
       sodipodi:cy="9.4203892"
       sodipodi:rx="3.8304696"
       sodipodi:ry="4.0320735"
       d="m 22.213059,9.4203892 c 0,2.2268528 -1.71496,4.0320738 -3.83047,4.0320738 -2.11551,0 -3.830469,-1.805221 -3.830469,-4.0320738 0,-2.2268527 1.714959,-4.0320735 3.830469,-4.0320735 2.11551,0 3.83047,1.8052208 3.83047,4.0320735 z"
       transform="matrix(1.2356785,0,0,1.1738944,-16.71497,1015.3037)" />
    <path
       sodipodi:type="arc"
       style="fill:none;stroke:#000000;stroke-width:1.43099539;stroke-miterlimit:4;stroke-dasharray:none"
       id="path2985-7"
       sodipodi:cx="18.382589"
       sodipodi:cy="9.4203892"
       sodipodi:rx="3.8304696"
       sodipodi:ry="4.0320735"
       d="m 22.213059,9.4203892 c 0,2.2268528 -1.71496,4.0320738 -3.83047,4.0320738 -2.11551,0 -3.830469,-1.805221 -3.830469,-4.0320738 0,-2.2268527 1.714959,-4.0320735 3.830469,-4.0320735 2.11551,0 3.83047,1.8052208 3.83047,4.0320735 z"
       transform="matrix(1.2356785,0,0,1.1738944,3.2850297,1035.3037)" />
    <path
       style="fill:none;stroke:#000000;stroke-width:2.51249313;stroke-linecap:butt;stroke-linejoin:miter;stroke-opacity:1;stroke-miterlimit:4;stroke-dasharray:none"
       d="M 26.497502,1046.8597 5.5024986,1025.8647"
       id="path3787"
       inkscape:connector-curvature="0" />
    <path
       style="fill:none;stroke:#000000;stroke-width:2.60226297;stroke-linecap:butt;stroke-linejoin:miter;stroke-opacity:1;stroke-miterlimit:4;stroke-dasharray:none"
       d="M 26.479548,1025.8826 5.5204526,1046.8417"
       id="path3789"
       inkscape:connector-curvature="0" />
    <text
       xml:space="preserve"
       style="font-size:20px;font-style:normal;font-weight:normal;text-align:center;line-height:125%;letter-spacing:0px;word-spacing:0px;text-anchor:middle;fill:#000000;fill-opacity:1;stroke:none;font-family:Sans"
       x="47.345703"
       y="1040.1639"
       id="text3810"
       sodipodi:linespacing="125%"><tspan
         sodipodi:role="line"
         id="tspan3812"
         x="47.345703"
         y="1040.1639"
         style="font-size:14px;font-weight:bold;-inkscape-font-specification:Sans Bold">100</tspan></text>
  </g>
</svg>
